<?xml version="1.0" encoding="utf-8"?>
<!-- Generator: Adobe Illustrator 23.0.3, SVG Export Plug-In . SVG Version: 6.00 Build 0)  -->
<svg version="1.1" id="Warstwa_1" xmlns="http://www.w3.org/2000/svg" xmlns:xlink="http://www.w3.org/1999/xlink" x="0px" y="0px"
	 viewBox="0 0 49 60" style="enable-background:new 0 0 49 60;" xml:space="preserve">
<style type="text/css">
	.st0{fill:#FFFFFF;}
</style>
<g>
	<path class="st0" d="M8.5,49.5l-1.3-1.1l0.2-0.2C7.5,48,8.4,47,9.9,45.4l0.1-0.1l-0.3-0.5c-0.5-0.9-0.8-1.9-1-3.1
		c-0.1-0.7-0.1-2.7,0-3.5C9,36,9.5,34.1,10.4,32l0.3-0.6l-0.3-0.7c-1-2.6-1.6-5.1-1.6-7.5c0-1.8,0.3-3.1,0.9-4.5l0.2-0.4l-0.2-0.2
		C9.6,18,9,17.3,8.3,16.6l-1.2-1.3l1.3-1.2C9.1,13.5,9.7,13,9.7,13c0,0,0.6,0.6,1.3,1.3c0.7,0.7,1.3,1.4,1.4,1.5l0.2,0.2l0.4-0.1
		c1.5-0.4,3.7-0.1,5.5,0.8c0.6,0.3,1.3,0.7,1.3,0.8c0,0.1-1.7,1.6-1.9,1.7c-0.1,0.1-0.2,0.1-0.7-0.1c-0.5-0.1-0.7-0.1-1.5-0.1
		c-0.8,0-1,0-1.3,0.1c-0.9,0.3-1.5,0.9-1.7,2.1c-0.1,0.6-0.1,1.9,0.1,2.7c0.2,0.9,0.7,2.6,0.9,2.7c0,0,0.1,0,0.1-0.1
		c1.9-2.4,4.4-4.7,7-6.4c1.5-1,3.4-2,4.9-2.6c0.4-0.2,0.7-0.3,0.7-0.3s-1.9-1-4.2-2.2c-2.4-1.2-4.3-2.2-4.3-2.2c0,0,3.1,0.4,6.9,0.9
		c3.8,0.5,6.9,1,6.9,0.9c0.1,0,0.3-0.7,0.7-2.3c0.4-1.3,0.7-2.3,0.7-2.3c0,0,0.5,1.1,1.1,2.6c0.8,2,1.1,2.6,1.2,2.6
		c0.1,0,1.5,0.2,3.2,0.5c2.5,0.3,3.1,0.4,3,0.5c-0.8,0.6-4.4,3.2-4.4,3.2c0,0,0.3,1.3,0.7,2.8c0.4,1.5,0.7,2.7,0.7,2.7
		c0,0-1.1-0.7-2.3-1.7c-1.6-1.2-2.3-1.7-2.4-1.6c-0.1,0.1-4.8,3.9-4.9,4c-0.1,0.1,0.1-0.6,0.6-2.5c0.4-1.4,0.7-2.6,0.7-2.7
		c0-0.1-0.6,0.1-1.7,0.7c-3.3,1.6-6.9,4.5-9.8,8c-0.8,1-2.1,2.7-2.1,2.8c0,0.1,0.8,1.1,1.4,2c1.9,2.4,4.1,4.5,6.4,6.2
		c2.7,2,5.3,3.3,7.5,3.8c0.8,0.2,1.9,0.2,2.4,0.1c1.2-0.3,1.8-1,1.9-2.5c0.1-0.6,0-1.5-0.2-2.4L36,38.4l0.2,0c0.1,0,0.7-0.1,1.4-0.1
		c1.1-0.1,1.3-0.1,1.3,0c0,0,0.1,0.3,0.2,0.5c0.5,1.8,0.5,3.3,0.1,4.8c-0.1,0.3-0.2,0.6-0.2,0.7c0,0.1,0.2,0.3,2.3,2.6l0.6,0.6
		l-1.2,1.3L39.5,50l-0.2-0.2c-0.1-0.1-0.7-0.8-1.4-1.5c-0.6-0.7-1.2-1.3-1.3-1.4c-0.1-0.1-0.1-0.1-0.4,0.1c-0.8,0.4-1.7,0.6-2.7,0.8
		c-0.8,0.1-2.2,0.1-3.1,0c-3.6-0.4-7.4-2.1-10.8-4.8c-2-1.5-4-3.6-5.5-5.7l-0.3-0.4l-0.2,0.5c-0.3,0.7-0.5,1.6-0.7,2.4
		c-0.1,0.6-0.1,0.8-0.1,1.6c0,0.8,0,1,0.1,1.3c0.3,1,0.9,1.6,1.9,1.8c0.5,0.1,1.5,0.1,2.2,0c0.3-0.1,0.7-0.1,0.7-0.1
		c0.1,0,0.3,0.2,1.2,1.1c0.8,0.8,1,1.1,1,1.1c-0.3,0.2-1.8,0.7-2.5,0.9c-1.3,0.3-2.8,0.4-3.9,0.1c-0.3-0.1-0.6-0.1-0.6-0.1
		c0,0-0.7,0.7-1.5,1.6c-0.8,0.9-1.5,1.6-1.5,1.6C9.8,50.6,9.2,50.1,8.5,49.5z"/>
	<path class="st0" d="M41,37.8c-1-0.1-1.7-0.6-2.3-1.3c-0.5-0.7-0.7-1.6-0.6-2.5c0.1-0.5,0.7-3.3,0.9-3.9c0.6-1.9,2.4-3.6,4.2-4.1
		c0.3-0.1,0.6-0.1,1.1-0.1c0.6,0,0.7,0,1.1,0.2c1,0.4,1.7,1.1,2,2.2c0.1,0.5,0.2,1.4,0.1,1.9l-0.1,0.3h-1.2h-1.2v-0.6
		c0-0.5,0-0.7-0.1-0.9c-0.6-1.4-2.6-0.9-3.5,0.8c-0.3,0.6-1,3.4-1,4c0,1.4,1,2,2.3,1.4c0.6-0.3,1.2-1.1,1.5-1.7l0.1-0.3h1.2
		c0.7,0,1.2,0,1.2,0c0,0.1-0.3,0.8-0.4,1.1c-0.6,1.3-1.8,2.4-3,3C42.6,37.7,41.7,37.9,41,37.8z"/>
	<path class="st0" d="M2.8,31.9l1.4-5.8h1.1c0.9,0,1.1,0,1.1,0.1c0,0-0.5,2.1-1.1,4.6l-1.1,4.5l1.6,0c1,0,1.6,0,1.6,0.1
		c0,0-0.1,0.6-0.3,1.2L7,37.6H4.2H1.4C1.4,37.6,2.8,31.9,2.8,31.9z"/>
	<path class="st0" d="M23.7,36.2c0.2-0.8,0.8-3.4,1.4-5.8l1.1-4.3h1.2c1.1,0,1.2,0,1.2,0.1c-0.1,0.3-1.1,4.4-1.1,4.4
		c0,0.1,0.2,0.1,1.7,0.1h1.7l0.6-2.3l0.6-2.3h1.2c0.6,0,1.2,0,1.2,0c0,0-2.7,10.9-2.8,11.3l-0.1,0.2h-1.2h-1.2l0.6-2.3
		c0.3-1.3,0.6-2.3,0.6-2.3c0,0-0.8,0-1.7,0l-1.7,0l-0.5,2.1c-0.3,1.2-0.6,2.2-0.6,2.3l0,0.1h-1.2h-1.2L23.7,36.2L23.7,36.2z"/>
</g>
</svg>
