<?xml version="1.0" encoding="utf-8"?>
<!-- Generator: Adobe Illustrator 23.0.3, SVG Export Plug-In . SVG Version: 6.00 Build 0)  -->
<svg version="1.1"
	 id="svg857" inkscape:version="0.92.4 (5da689c313, 2019-01-14)" sodipodi:docname="img-nav-logo5.svg" xmlns:cc="http://creativecommons.org/ns#" xmlns:dc="http://purl.org/dc/elements/1.1/" xmlns:inkscape="http://www.inkscape.org/namespaces/inkscape" xmlns:rdf="http://www.w3.org/1999/02/22-rdf-syntax-ns#" xmlns:sodipodi="http://sodipodi.sourceforge.net/DTD/sodipodi-0.dtd" xmlns:svg="http://www.w3.org/2000/svg"
	 xmlns="http://www.w3.org/2000/svg" xmlns:xlink="http://www.w3.org/1999/xlink" x="0px" y="0px" viewBox="0 0 49 60"
	 style="enable-background:new 0 0 49 60;" xml:space="preserve">
<style type="text/css">
	.st0{fill:#00A8FF;}
	.st1{fill:#6B39B2;}
	.st2{fill:#007CFF;}
</style>
<sodipodi:namedview  bordercolor="#666666" borderopacity="1" gridtolerance="10" guidetolerance="10" id="namedview859" inkscape:current-layer="svg857" inkscape:cx="24.5" inkscape:cy="30" inkscape:pageopacity="0" inkscape:pageshadow="2" inkscape:window-height="1017" inkscape:window-maximized="1" inkscape:window-width="1920" inkscape:window-x="-8" inkscape:window-y="-8" inkscape:zoom="3.9333333" objecttolerance="10" pagecolor="#ffffff" showgrid="false">
	</sodipodi:namedview>
<g>
	<path class="st0" d="M9.3,50.9c-0.1,0-2.7-2.3-2.7-2.3s0.7-0.8,1.5-1.6l1.5-1.6L9.3,45c-1.1-2.2-1.4-4.7-0.9-7.9
		c0.3-1.7,0.9-3.6,1.7-5.2c0.2-0.5,0.2-0.5,0.2-0.7c-0.1-0.2-0.1-0.2,0.6-1.5c0.7-1.2,1.7-2.8,2.4-3.6c0.1-0.1,0.1-0.1,0.2,0
		c0.1,0.1,0.1,0.1,0.2,0c2.5-3.1,5.2-5.5,8.6-7.5c1-0.6,2.6-1.4,3.6-1.8c0.4-0.2,0.7-0.3,0.7-0.3s-2-1-4.4-2.3
		c-2.6-1.3-4.4-2.3-4.3-2.3c0.1,0,3.3,0.4,7.2,1c3.8,0.5,7.1,1,7.1,1c0.1,0,0.2-0.4,0.8-2.5c0.4-1.4,0.7-2.5,0.8-2.5
		c0,0,0.5,1.2,1.1,2.7s1.1,2.7,1.1,2.7s1.5,0.2,3.3,0.5c1.8,0.2,3.3,0.5,3.3,0.5s-0.7,0.6-2.2,1.7c-1.2,0.9-2.3,1.7-2.3,1.7
		c-0.1,0.1-0.1,0.2,0.7,2.9c0.4,1.6,0.8,2.9,0.8,2.9s-1.1-0.7-2.5-1.7l-2.6-1.7l-0.4,0.3c-0.2,0.2-1.4,1.1-2.6,2.1
		c-1.2,1-2.3,1.8-2.3,1.8s0.3-1.2,0.7-2.7s0.7-2.7,0.7-2.7s-1.4,0.5-2.1,0.9c-3.5,1.8-6.8,4.5-9.8,8.1c-0.7,0.9-2.1,2.7-2.1,2.8
		c0,0,0,0.1,0.1,0.1c0.1,0.1,0.1,0.2-0.1,0.5c-0.3,0.5-1,1.5-1.4,2.4c-0.5,0.9-1.2,2.3-1.2,2.5c0,0.1-0.2,0.1-0.3,0
		c-0.1-0.2-0.7,1.7-1,2.9c-0.2,0.8-0.2,2.1-0.1,2.7c0.2,1.2,0.9,1.9,2,2.1c0.6,0.1,1.6,0,2.6-0.2l0.4-0.1l1.1,1.1
		c0.6,0.6,1.2,1.2,1.2,1.2s-0.2,0.1-0.5,0.3c-2.1,1-4.3,1.3-6.1,0.9c-0.3-0.1-0.6-0.1-0.7-0.1c-0.1,0-0.4,0.4-1.4,1.3
		C9.8,50.4,9.4,50.8,9.3,50.9C9.4,50.9,9.4,50.9,9.3,50.9L9.3,50.9z"/>
</g>
<g>
	<path class="st1" d="M38.4,48.8c-0.8-0.8-1.4-1.5-1.5-1.6l-0.1-0.1l-0.6,0.2c-1.1,0.5-2.3,0.7-3.7,0.8c-2,0.1-3.7-0.2-5.8-1
		c-4.8-1.6-9.4-5-12.9-9.8c-0.2-0.3-0.3-0.5-0.3-0.5l0.1-0.1c0-0.2,0.7-1.6,1.2-2.5c0.5-0.8,1.1-1.9,1.4-2.4
		c0.1-0.1,0.2-0.3,0.2-0.3c0-0.1,0.1,0,0.5,0.6c3.9,5.3,9.8,10,14.4,11.2c1,0.3,1.5,0.4,2.4,0.4c0.7,0,0.9,0,1.2-0.1
		c0.9-0.3,1.4-0.8,1.7-1.9c0.2-0.8,0.2-1.9-0.1-3.1c-0.1-0.3-0.1-0.6-0.1-0.6S39,38,39.1,38c0.1,0,0.1,0,0.2,0.4
		c0.3,1.2,0.5,1.9,0.4,3.1c0,1-0.1,1.6-0.3,2.4l-0.1,0.5l1,1.1c1.9,2,2.1,2.2,2.1,2.3c0,0.1-2.5,2.7-2.6,2.7
		C39.8,50.3,39.2,49.6,38.4,48.8z"/>
	<path class="st1" d="M10,30.6c-0.6-1.4-1.1-3.3-1.3-4.4c-0.2-1-0.3-2.3-0.3-3.5c0-1.1,0-1.3,0.1-1.9c0.2-0.9,0.4-1.7,0.7-2.4
		L9.4,18l-1.4-1.5c-0.8-0.8-1.4-1.5-1.5-1.6l-0.1-0.1l1.4-1.2c0.8-0.7,1.4-1.2,1.4-1.2s2.3,2.4,3,3.1c0,0.1,0.1,0,0.5,0
		c1.6-0.4,3.7-0.1,5.5,0.8c0.6,0.3,1.4,0.8,1.5,0.9c0,0-1,1-1.9,1.8l-0.2,0.2l-0.5-0.5c-1.4-0.3-2.6-0.3-3.4,0.1
		c-0.7,0.4-1.2,1.2-1.3,2.3c-0.1,0.6,0,2.2,0.2,2.5c0,0.1,0.1,0.4,0.2,0.7c0.1,0.3,0.2,0.8,0.4,1.2l0.2,0.7l-0.1,0.2
		c-1.2,1.7-1.9,2.7-2.8,4.4l-0.4,0.5L10,30.6L10,30.6z"/>
</g>
<g>
	<path class="st2" d="M41.5,37.8c-1-0.1-1.8-0.6-2.4-1.4c-0.5-0.7-0.7-1.7-0.6-2.6c0.1-0.5,0.8-3.4,1-4c0.7-2,2.5-3.6,4.3-4.1
		c0.4-0.1,0.6-0.1,1.1-0.1c0.6,0,0.7,0,1.1,0.2c1.1,0.4,1.8,1.2,2.1,2.3c0.1,0.5,0.2,1.4,0.1,2l-0.1,0.4h-1.2h-1.2v-0.6
		c0-0.6,0-0.7-0.1-0.9c-0.7-1.4-2.7-0.9-3.6,0.8c-0.3,0.6-1,3.6-1,4.1c0,1.4,1.1,2.1,2.4,1.5c0.6-0.3,1.3-1.1,1.5-1.8l0.1-0.3h1.2
		c0.7,0,1.2,0,1.2,0c0,0.1-0.3,0.8-0.5,1.2c-0.7,1.3-1.9,2.5-3.1,3.1C43.2,37.7,42.2,37.8,41.5,37.8z"/>
	<path class="st2" d="M2.2,31.6l1.5-5.9h1.2c0.9,0,1.2,0,1.2,0.1c0,0-0.5,2.2-1.2,4.7l-1.2,4.6h1.7c1.1,0,1.7,0,1.7,0.1
		c0,0-0.1,0.6-0.3,1.2l-0.3,1.2H3.7h-3L2.2,31.6z"/>
	<path class="st2" d="M23.7,36c0.2-0.8,0.9-3.6,1.5-5.9l1.1-4.4h1.2c1.1,0,1.2,0,1.2,0.1c-0.1,0.3-1.1,4.4-1.1,4.5
		c0,0.1,0.2,0.1,1.7,0.1h1.7l0.6-2.4l0.6-2.4h1.2c0.7,0,1.2,0,1.2,0s-2.8,11.2-2.9,11.6l-0.1,0.2h-1.2h-1.2l0.6-2.4
		c0.3-1.3,0.6-2.4,0.6-2.4s-0.8,0-1.7,0H27l-0.6,2.2c-0.3,1.2-0.6,2.3-0.6,2.4v0.1h-1.2h-1.2L23.7,36L23.7,36z"/>
</g>
</svg>
